<svg xmlns="http://www.w3.org/2000/svg" width="900" height="480" viewBox="0 0 900 480" role="img" aria-label="LFG system architecture: three client surfaces (Discord Activity, Telegram, and the classic Discord bot) call the shared lfg_service backend, which calls lfg_core (mint, trait-swap, marketplace, economy, on-chain index, history), which talks to the XRP Ledger, Xaman (XUMM), and BunnyCDN plus IPFS.">
  <!-- sticker shadow + card -->
  <rect x="8" y="8" width="884" height="464" rx="18" fill="#0A0A0A"/>
  <rect x="2" y="2" width="884" height="464" rx="18" fill="#181818" stroke="#FFFFFF" stroke-width="3"/>

  <!-- header -->
  <text x="32" y="36" font-family="-apple-system,'Segoe UI',Roboto,Helvetica,Arial,sans-serif" font-size="22" font-weight="900"><tspan fill="#D89030">L</tspan><tspan fill="#D84830">F</tspan><tspan fill="#4890C0">G</tspan><tspan fill="#F5F4F1" dx="9">system architecture</tspan></text>
  <text x="858" y="34" text-anchor="end" font-family="-apple-system,'Segoe UI',Roboto,Helvetica,Arial,sans-serif" font-size="12" fill="#9C9A94">SQLite: lfg_nfts &#183; onchain_&lt;net&gt; &#183; history_&lt;net&gt;</text>

  <!-- arrows: row 1 -> row 2 (three surfaces into lfg_service) -->
  <path d="M161,122 L161,152 L300,152 L300,180" fill="none" stroke="#9C9A94" stroke-width="2" stroke-linecap="round" stroke-linejoin="round"/>
  <polygon points="295,172 305,172 300,180" fill="#9C9A94"/>
  <path d="M450,122 L450,180" fill="none" stroke="#9C9A94" stroke-width="2" stroke-linecap="round"/>
  <polygon points="445,172 455,172 450,180" fill="#9C9A94"/>
  <path d="M739,122 L739,152 L600,152 L600,180" fill="none" stroke="#9C9A94" stroke-width="2" stroke-linecap="round" stroke-linejoin="round"/>
  <polygon points="595,172 605,172 600,180" fill="#9C9A94"/>

  <!-- arrow: row 2 -> row 3 (lfg_service into lfg_core) -->
  <path d="M450,242 L450,284" fill="none" stroke="#9C9A94" stroke-width="2" stroke-linecap="round"/>
  <polygon points="445,276 455,276 450,284" fill="#9C9A94"/>

  <!-- arrows: row 3 -> row 4 (lfg_core into three externals) -->
  <path d="M250,346 L250,369 L161,369 L161,390" fill="none" stroke="#9C9A94" stroke-width="2" stroke-linecap="round" stroke-linejoin="round"/>
  <polygon points="156,382 166,382 161,390" fill="#9C9A94"/>
  <path d="M450,346 L450,390" fill="none" stroke="#9C9A94" stroke-width="2" stroke-linecap="round"/>
  <polygon points="445,382 455,382 450,390" fill="#9C9A94"/>
  <path d="M650,346 L650,369 L739,369 L739,390" fill="none" stroke="#9C9A94" stroke-width="2" stroke-linecap="round" stroke-linejoin="round"/>
  <polygon points="734,382 744,382 739,390" fill="#9C9A94"/>

  <!-- ROW 1: client surfaces -->
  <rect x="36" y="56" width="250" height="66" rx="12" fill="#181818" stroke="#FFFFFF" stroke-width="2"/>
  <rect x="50" y="71" width="6" height="36" rx="3" fill="#601878"/>
  <text x="66" y="90" font-family="-apple-system,'Segoe UI',Roboto,Helvetica,Arial,sans-serif" font-size="17" font-weight="800" fill="#F5F4F1">Discord Activity</text>
  <text x="66" y="108" font-family="-apple-system,'Segoe UI',Roboto,Helvetica,Arial,sans-serif" font-size="12" fill="#9C9A94">embedded webapp</text>

  <rect x="325" y="56" width="250" height="66" rx="12" fill="#181818" stroke="#FFFFFF" stroke-width="2"/>
  <rect x="339" y="71" width="6" height="36" rx="3" fill="#F0D848"/>
  <text x="355" y="90" font-family="-apple-system,'Segoe UI',Roboto,Helvetica,Arial,sans-serif" font-size="17" font-weight="800" fill="#F5F4F1">Telegram</text>
  <text x="355" y="108" font-family="-apple-system,'Segoe UI',Roboto,Helvetica,Arial,sans-serif" font-size="12" fill="#9C9A94">bot + Mini App</text>

  <rect x="614" y="56" width="250" height="66" rx="12" fill="#181818" stroke="#FFFFFF" stroke-width="2"/>
  <rect x="628" y="71" width="6" height="36" rx="3" fill="#3DA35D"/>
  <text x="644" y="90" font-family="-apple-system,'Segoe UI',Roboto,Helvetica,Arial,sans-serif" font-size="17" font-weight="800" fill="#F5F4F1">Classic Discord Bot</text>
  <text x="644" y="108" font-family="-apple-system,'Segoe UI',Roboto,Helvetica,Arial,sans-serif" font-size="12" fill="#9C9A94">main.py slash commands</text>

  <!-- ROW 2: service backend -->
  <rect x="250" y="182" width="400" height="60" rx="12" fill="#181818" stroke="#FFFFFF" stroke-width="2"/>
  <rect x="264" y="197" width="6" height="30" rx="3" fill="#4890C0"/>
  <text x="280" y="212" font-family="-apple-system,'Segoe UI',Roboto,Helvetica,Arial,sans-serif" font-size="17" font-weight="800" fill="#F5F4F1">lfg_service</text>
  <text x="280" y="230" font-family="-apple-system,'Segoe UI',Roboto,Helvetica,Arial,sans-serif" font-size="12" fill="#9C9A94">shared REST + WebSocket backend &#183; auth &#183; identity</text>

  <!-- ROW 3: core domain -->
  <rect x="170" y="286" width="560" height="60" rx="12" fill="#181818" stroke="#FFFFFF" stroke-width="2"/>
  <rect x="184" y="301" width="6" height="30" rx="3" fill="#D89030"/>
  <text x="200" y="316" font-family="-apple-system,'Segoe UI',Roboto,Helvetica,Arial,sans-serif" font-size="17" font-weight="800" fill="#F5F4F1">lfg_core</text>
  <text x="200" y="334" font-family="-apple-system,'Segoe UI',Roboto,Helvetica,Arial,sans-serif" font-size="12" fill="#9C9A94">mint &#183; trait-swap &#183; marketplace &#183; economy &#183; on-chain index &#183; history</text>

  <!-- ROW 4: external systems -->
  <rect x="36" y="392" width="250" height="66" rx="12" fill="#181818" stroke="#FFFFFF" stroke-width="2"/>
  <rect x="50" y="407" width="6" height="36" rx="3" fill="#D84830"/>
  <text x="66" y="426" font-family="-apple-system,'Segoe UI',Roboto,Helvetica,Arial,sans-serif" font-size="17" font-weight="800" fill="#F5F4F1">XRP Ledger</text>
  <text x="66" y="440" font-family="-apple-system,'Segoe UI',Roboto,Helvetica,Arial,sans-serif" font-size="11" fill="#9C9A94">clio + rippled</text>
  <text x="66" y="453" font-family="-apple-system,'Segoe UI',Roboto,Helvetica,Arial,sans-serif" font-size="11" fill="#9C9A94">NFTokenMint/Offer/Modify</text>

  <rect x="325" y="392" width="250" height="66" rx="12" fill="#181818" stroke="#FFFFFF" stroke-width="2"/>
  <rect x="339" y="407" width="6" height="36" rx="3" fill="#D89030"/>
  <text x="355" y="426" font-family="-apple-system,'Segoe UI',Roboto,Helvetica,Arial,sans-serif" font-size="17" font-weight="800" fill="#F5F4F1">Xaman (XUMM)</text>
  <text x="355" y="444" font-family="-apple-system,'Segoe UI',Roboto,Helvetica,Arial,sans-serif" font-size="12" fill="#9C9A94">QR + push signing, no custody</text>

  <rect x="614" y="392" width="250" height="66" rx="12" fill="#181818" stroke="#FFFFFF" stroke-width="2"/>
  <rect x="628" y="407" width="6" height="36" rx="3" fill="#4890C0"/>
  <text x="644" y="426" font-family="-apple-system,'Segoe UI',Roboto,Helvetica,Arial,sans-serif" font-size="17" font-weight="800" fill="#F5F4F1">BunnyCDN + IPFS</text>
  <text x="644" y="444" font-family="-apple-system,'Segoe UI',Roboto,Helvetica,Arial,sans-serif" font-size="12" fill="#9C9A94">image + metadata hosting</text>
</svg>
