<svg xmlns="http://www.w3.org/2000/svg" width="900" height="480" viewBox="0 0 900 480" role="img" aria-label="LFG system architecture: four client surfaces (Discord Activity, the web app at build.letseffinggo.com, Telegram, and the classic Discord bot) call the shared lfg_service backend, which calls lfg_core (mint, trait-swap, marketplace, economy, on-chain index, history), which talks to the XRP Ledger, Xaman (XUMM), and BunnyCDN plus IPFS.">
  <!-- sticker shadow + card -->
  <rect x="8" y="8" width="884" height="464" rx="18" fill="#0A0A0A"/>
  <rect x="2" y="2" width="884" height="464" rx="18" fill="#181818" stroke="#FFFFFF" stroke-width="3"/>

  <!-- header (real LFG wordmark via LOGO_HREF placeholder, baked by build_architecture.py) -->
  <image x="32" y="14" width="142" height="24" href="__LOGO_HREF__"/>
  <text x="186" y="36" font-family="-apple-system,'Segoe UI',Roboto,Helvetica,Arial,sans-serif" font-size="22" font-weight="900" fill="#F5F4F1">system architecture</text>
  <text x="858" y="34" text-anchor="end" font-family="-apple-system,'Segoe UI',Roboto,Helvetica,Arial,sans-serif" font-size="12" fill="#9C9A94">SQLite: lfg_nfts &#183; onchain_&lt;net&gt; &#183; history_&lt;net&gt;</text>

  <!-- arrows: row 1 -> row 2 (four surfaces into lfg_service) -->
  <path d="M133,122 L133,152 L310,152 L310,180" fill="none" stroke="#9C9A94" stroke-width="2" stroke-linecap="round" stroke-linejoin="round"/>
  <polygon points="305,172 315,172 310,180" fill="#9C9A94"/>
  <path d="M344,122 L344,152 L405,152 L405,180" fill="none" stroke="#9C9A94" stroke-width="2" stroke-linecap="round" stroke-linejoin="round"/>
  <polygon points="400,172 410,172 405,180" fill="#9C9A94"/>
  <path d="M555,122 L555,152 L495,152 L495,180" fill="none" stroke="#9C9A94" stroke-width="2" stroke-linecap="round" stroke-linejoin="round"/>
  <polygon points="490,172 500,172 495,180" fill="#9C9A94"/>
  <path d="M766,122 L766,152 L590,152 L590,180" fill="none" stroke="#9C9A94" stroke-width="2" stroke-linecap="round" stroke-linejoin="round"/>
  <polygon points="585,172 595,172 590,180" fill="#9C9A94"/>

  <!-- arrow: row 2 -> row 3 (lfg_service into lfg_core) -->
  <path d="M450,242 L450,284" fill="none" stroke="#9C9A94" stroke-width="2" stroke-linecap="round"/>
  <polygon points="445,276 455,276 450,284" fill="#9C9A94"/>

  <!-- arrows: row 3 -> row 4 (lfg_core into three externals) -->
  <path d="M250,346 L250,369 L161,369 L161,390" fill="none" stroke="#9C9A94" stroke-width="2" stroke-linecap="round" stroke-linejoin="round"/>
  <polygon points="156,382 166,382 161,390" fill="#9C9A94"/>
  <path d="M450,346 L450,390" fill="none" stroke="#9C9A94" stroke-width="2" stroke-linecap="round"/>
  <polygon points="445,382 455,382 450,390" fill="#9C9A94"/>
  <path d="M650,346 L650,369 L739,369 L739,390" fill="none" stroke="#9C9A94" stroke-width="2" stroke-linecap="round" stroke-linejoin="round"/>
  <polygon points="734,382 744,382 739,390" fill="#9C9A94"/>

  <!-- ROW 1: client surfaces -->
  <rect x="36" y="56" width="195" height="66" rx="12" fill="#181818" stroke="#FFFFFF" stroke-width="2"/>
  <rect x="50" y="71" width="6" height="36" rx="3" fill="#601878"/>
  <text x="66" y="90" font-family="-apple-system,'Segoe UI',Roboto,Helvetica,Arial,sans-serif" font-size="16" font-weight="800" fill="#F5F4F1">Discord Activity</text>
  <text x="66" y="108" font-family="-apple-system,'Segoe UI',Roboto,Helvetica,Arial,sans-serif" font-size="11" fill="#9C9A94">embedded webapp</text>

  <rect x="247" y="56" width="195" height="66" rx="12" fill="#181818" stroke="#FFFFFF" stroke-width="2"/>
  <rect x="261" y="71" width="6" height="36" rx="3" fill="#D89030"/>
  <text x="277" y="90" font-family="-apple-system,'Segoe UI',Roboto,Helvetica,Arial,sans-serif" font-size="16" font-weight="800" fill="#F5F4F1">Web App</text>
  <text x="277" y="108" font-family="-apple-system,'Segoe UI',Roboto,Helvetica,Arial,sans-serif" font-size="11" fill="#9C9A94">build.letseffinggo.com</text>

  <rect x="458" y="56" width="195" height="66" rx="12" fill="#181818" stroke="#FFFFFF" stroke-width="2"/>
  <rect x="472" y="71" width="6" height="36" rx="3" fill="#F0D848"/>
  <text x="488" y="90" font-family="-apple-system,'Segoe UI',Roboto,Helvetica,Arial,sans-serif" font-size="16" font-weight="800" fill="#F5F4F1">Telegram</text>
  <text x="488" y="108" font-family="-apple-system,'Segoe UI',Roboto,Helvetica,Arial,sans-serif" font-size="11" fill="#9C9A94">bot + Mini App</text>

  <rect x="669" y="56" width="195" height="66" rx="12" fill="#181818" stroke="#FFFFFF" stroke-width="2"/>
  <rect x="683" y="71" width="6" height="36" rx="3" fill="#3DA35D"/>
  <text x="699" y="90" font-family="-apple-system,'Segoe UI',Roboto,Helvetica,Arial,sans-serif" font-size="16" font-weight="800" fill="#F5F4F1">Discord Bot</text>
  <text x="699" y="108" font-family="-apple-system,'Segoe UI',Roboto,Helvetica,Arial,sans-serif" font-size="11" fill="#9C9A94">classic slash commands</text>

  <!-- ROW 2: service backend -->
  <rect x="250" y="182" width="400" height="60" rx="12" fill="#181818" stroke="#FFFFFF" stroke-width="2"/>
  <rect x="264" y="197" width="6" height="30" rx="3" fill="#4890C0"/>
  <text x="280" y="212" font-family="-apple-system,'Segoe UI',Roboto,Helvetica,Arial,sans-serif" font-size="17" font-weight="800" fill="#F5F4F1">lfg_service</text>
  <text x="280" y="230" font-family="-apple-system,'Segoe UI',Roboto,Helvetica,Arial,sans-serif" font-size="12" fill="#9C9A94">shared REST + WebSocket backend &#183; auth &#183; identity</text>

  <!-- ROW 3: core domain -->
  <rect x="170" y="286" width="560" height="60" rx="12" fill="#181818" stroke="#FFFFFF" stroke-width="2"/>
  <rect x="184" y="301" width="6" height="30" rx="3" fill="#D89030"/>
  <text x="200" y="316" font-family="-apple-system,'Segoe UI',Roboto,Helvetica,Arial,sans-serif" font-size="17" font-weight="800" fill="#F5F4F1">lfg_core</text>
  <text x="200" y="334" font-family="-apple-system,'Segoe UI',Roboto,Helvetica,Arial,sans-serif" font-size="12" fill="#9C9A94">mint &#183; trait-swap &#183; marketplace &#183; economy &#183; on-chain index &#183; history</text>

  <!-- ROW 4: external systems -->
  <rect x="36" y="392" width="250" height="66" rx="12" fill="#181818" stroke="#FFFFFF" stroke-width="2"/>
  <rect x="50" y="407" width="6" height="36" rx="3" fill="#D84830"/>
  <text x="66" y="426" font-family="-apple-system,'Segoe UI',Roboto,Helvetica,Arial,sans-serif" font-size="17" font-weight="800" fill="#F5F4F1">XRP Ledger</text>
  <text x="66" y="440" font-family="-apple-system,'Segoe UI',Roboto,Helvetica,Arial,sans-serif" font-size="11" fill="#9C9A94">clio + rippled</text>
  <text x="66" y="453" font-family="-apple-system,'Segoe UI',Roboto,Helvetica,Arial,sans-serif" font-size="11" fill="#9C9A94">NFTokenMint/Offer/Modify</text>

  <rect x="325" y="392" width="250" height="66" rx="12" fill="#181818" stroke="#FFFFFF" stroke-width="2"/>
  <rect x="339" y="407" width="6" height="36" rx="3" fill="#D89030"/>
  <text x="355" y="426" font-family="-apple-system,'Segoe UI',Roboto,Helvetica,Arial,sans-serif" font-size="17" font-weight="800" fill="#F5F4F1">Xaman (XUMM)</text>
  <text x="355" y="444" font-family="-apple-system,'Segoe UI',Roboto,Helvetica,Arial,sans-serif" font-size="12" fill="#9C9A94">QR + push signing, no custody</text>

  <rect x="614" y="392" width="250" height="66" rx="12" fill="#181818" stroke="#FFFFFF" stroke-width="2"/>
  <rect x="628" y="407" width="6" height="36" rx="3" fill="#4890C0"/>
  <text x="644" y="426" font-family="-apple-system,'Segoe UI',Roboto,Helvetica,Arial,sans-serif" font-size="17" font-weight="800" fill="#F5F4F1">BunnyCDN + IPFS</text>
  <text x="644" y="444" font-family="-apple-system,'Segoe UI',Roboto,Helvetica,Arial,sans-serif" font-size="12" fill="#9C9A94">image + metadata hosting</text>
</svg>
