<svg xmlns="http://www.w3.org/2000/svg" width="728" height="210" viewBox="0 0 728 210" role="img" aria-label="Live repo vitals: 2,246 tests, 363 modules, 333 commits across 4 surfaces, with a commits-per-day sprint velocity chart since June 21">
<rect x="8" y="8" width="718" height="200" rx="18" fill="#0A0A0A"/>
<rect x="2" y="2" width="718" height="200" rx="18" fill="#181818" stroke="#FFFFFF" stroke-width="3"/>
<text x="24" y="34" font-family="-apple-system,'Segoe UI',Roboto,Helvetica,Arial,sans-serif" font-size="19" font-weight="700" fill="#F5F4F1">Built in a hackathon sprint</text>
<text x="24" y="56" font-family="-apple-system,'Segoe UI',Roboto,Helvetica,Arial,sans-serif" font-size="13" fill="#9C9A94">live repo vitals · auto-updated on every push to main</text>
<rect x="24.0" y="72" width="156.0" height="60" rx="12" fill="#202020" stroke="#2C2C2C" stroke-width="1"/>
<rect x="40.0" y="84" width="30" height="5" rx="2.5" fill="#4890C0"/>
<text x="40.0" y="114" font-family="-apple-system,'Segoe UI',Roboto,Helvetica,Arial,sans-serif" font-size="26" font-weight="800" fill="#4890C0">2,246</text>
<text x="40.0" y="127" font-family="-apple-system,'Segoe UI',Roboto,Helvetica,Arial,sans-serif" font-size="11" fill="#9C9A94">tests</text>
<rect x="196.0" y="72" width="156.0" height="60" rx="12" fill="#202020" stroke="#2C2C2C" stroke-width="1"/>
<rect x="212.0" y="84" width="30" height="5" rx="2.5" fill="#D89030"/>
<text x="212.0" y="114" font-family="-apple-system,'Segoe UI',Roboto,Helvetica,Arial,sans-serif" font-size="26" font-weight="800" fill="#D89030">363</text>
<text x="212.0" y="127" font-family="-apple-system,'Segoe UI',Roboto,Helvetica,Arial,sans-serif" font-size="11" fill="#9C9A94">modules</text>
<rect x="368.0" y="72" width="156.0" height="60" rx="12" fill="#202020" stroke="#2C2C2C" stroke-width="1"/>
<rect x="384.0" y="84" width="30" height="5" rx="2.5" fill="#D84830"/>
<text x="384.0" y="114" font-family="-apple-system,'Segoe UI',Roboto,Helvetica,Arial,sans-serif" font-size="26" font-weight="800" fill="#D84830">333</text>
<text x="384.0" y="127" font-family="-apple-system,'Segoe UI',Roboto,Helvetica,Arial,sans-serif" font-size="11" fill="#9C9A94">commits</text>
<rect x="540.0" y="72" width="156.0" height="60" rx="12" fill="#202020" stroke="#2C2C2C" stroke-width="1"/>
<rect x="556.0" y="84" width="30" height="5" rx="2.5" fill="#3DA35D"/>
<text x="556.0" y="114" font-family="-apple-system,'Segoe UI',Roboto,Helvetica,Arial,sans-serif" font-size="26" font-weight="800" fill="#3DA35D">4</text>
<text x="556.0" y="127" font-family="-apple-system,'Segoe UI',Roboto,Helvetica,Arial,sans-serif" font-size="11" fill="#9C9A94">surfaces</text>
<text x="24" y="156" font-family="-apple-system,'Segoe UI',Roboto,Helvetica,Arial,sans-serif" font-size="12" fill="#9C9A94">commits / day since June 21</text>
<line x1="24.0" y1="192" x2="696.0" y2="192" stroke="#2C2C2C" stroke-width="1"/>
<rect x="29.0" y="190.0" width="12.3" height="2.0" rx="2" fill="#D89030"/>
<rect x="51.4" y="190.0" width="12.3" height="2.0" rx="2" fill="#D89030"/>
<rect x="73.8" y="189.2" width="12.3" height="2.8" rx="2" fill="#D89030"/>
<rect x="96.2" y="189.2" width="12.3" height="2.8" rx="2" fill="#D89030"/>
<rect x="118.6" y="185.7" width="12.3" height="6.3" rx="2" fill="#D89030"/>
<rect x="141.0" y="183.6" width="12.3" height="8.4" rx="2" fill="#D89030"/>
<rect x="163.4" y="187.1" width="12.3" height="4.9" rx="2" fill="#D89030"/>
<rect x="185.8" y="190.0" width="12.3" height="2.0" rx="2" fill="#D89030"/>
<rect x="275.4" y="185.7" width="12.3" height="6.3" rx="2" fill="#D89030"/>
<rect x="297.8" y="189.2" width="12.3" height="2.8" rx="2" fill="#D89030"/>
<rect x="320.2" y="175.8" width="12.3" height="16.2" rx="2" fill="#D89030"/>
<rect x="342.6" y="170.2" width="12.3" height="21.8" rx="2" fill="#D89030"/>
<rect x="365.0" y="185.7" width="12.3" height="6.3" rx="2" fill="#D89030"/>
<rect x="387.4" y="190.0" width="12.3" height="2.0" rx="2" fill="#D89030"/>
<rect x="409.8" y="190.0" width="12.3" height="2.0" rx="2" fill="#D89030"/>
<rect x="432.2" y="182.9" width="12.3" height="9.1" rx="2" fill="#D89030"/>
<rect x="454.6" y="175.1" width="12.3" height="16.9" rx="2" fill="#D89030"/>
<rect x="477.0" y="170.2" width="12.3" height="21.8" rx="2" fill="#D89030"/>
<rect x="499.4" y="178.6" width="12.3" height="13.4" rx="2" fill="#D89030"/>
<rect x="521.8" y="183.6" width="12.3" height="8.4" rx="2" fill="#D89030"/>
<rect x="544.2" y="182.9" width="12.3" height="9.1" rx="2" fill="#D89030"/>
<rect x="566.6" y="181.5" width="12.3" height="10.5" rx="2" fill="#D89030"/>
<rect x="589.0" y="173.0" width="12.3" height="19.0" rx="2" fill="#D89030"/>
<rect x="611.4" y="166.0" width="12.3" height="26.0" rx="2" fill="#D89030"/>
<rect x="633.8" y="182.2" width="12.3" height="9.8" rx="2" fill="#D89030"/>
<rect x="656.2" y="188.5" width="12.3" height="3.5" rx="2" fill="#D89030"/>
<rect x="678.6" y="189.2" width="12.3" height="2.8" rx="2" fill="#D89030"/>
</svg>
