<svg xmlns="http://www.w3.org/2000/svg" width="728" height="210" viewBox="0 0 728 210" role="img" aria-label="Live repo vitals: 2,521 tests, 387 modules, 426 commits across 4 surfaces, with a commits-per-day sprint velocity chart since June 21">
<rect x="8" y="8" width="718" height="200" rx="18" fill="#0A0A0A"/>
<rect x="2" y="2" width="718" height="200" rx="18" fill="#181818" stroke="#FFFFFF" stroke-width="3"/>
<text x="24" y="34" font-family="-apple-system,'Segoe UI',Roboto,Helvetica,Arial,sans-serif" font-size="19" font-weight="700" fill="#F5F4F1">Built in a hackathon sprint</text>
<text x="24" y="56" font-family="-apple-system,'Segoe UI',Roboto,Helvetica,Arial,sans-serif" font-size="13" fill="#9C9A94">live repo vitals · auto-updated on every push to main</text>
<rect x="24.0" y="72" width="156.0" height="60" rx="12" fill="#202020" stroke="#2C2C2C" stroke-width="1"/>
<rect x="40.0" y="84" width="30" height="5" rx="2.5" fill="#4890C0"/>
<text x="40.0" y="114" font-family="-apple-system,'Segoe UI',Roboto,Helvetica,Arial,sans-serif" font-size="26" font-weight="800" fill="#4890C0">2,521</text>
<text x="40.0" y="127" font-family="-apple-system,'Segoe UI',Roboto,Helvetica,Arial,sans-serif" font-size="11" fill="#9C9A94">tests</text>
<rect x="196.0" y="72" width="156.0" height="60" rx="12" fill="#202020" stroke="#2C2C2C" stroke-width="1"/>
<rect x="212.0" y="84" width="30" height="5" rx="2.5" fill="#D89030"/>
<text x="212.0" y="114" font-family="-apple-system,'Segoe UI',Roboto,Helvetica,Arial,sans-serif" font-size="26" font-weight="800" fill="#D89030">387</text>
<text x="212.0" y="127" font-family="-apple-system,'Segoe UI',Roboto,Helvetica,Arial,sans-serif" font-size="11" fill="#9C9A94">modules</text>
<rect x="368.0" y="72" width="156.0" height="60" rx="12" fill="#202020" stroke="#2C2C2C" stroke-width="1"/>
<rect x="384.0" y="84" width="30" height="5" rx="2.5" fill="#D84830"/>
<text x="384.0" y="114" font-family="-apple-system,'Segoe UI',Roboto,Helvetica,Arial,sans-serif" font-size="26" font-weight="800" fill="#D84830">426</text>
<text x="384.0" y="127" font-family="-apple-system,'Segoe UI',Roboto,Helvetica,Arial,sans-serif" font-size="11" fill="#9C9A94">commits</text>
<rect x="540.0" y="72" width="156.0" height="60" rx="12" fill="#202020" stroke="#2C2C2C" stroke-width="1"/>
<rect x="556.0" y="84" width="30" height="5" rx="2.5" fill="#3DA35D"/>
<text x="556.0" y="114" font-family="-apple-system,'Segoe UI',Roboto,Helvetica,Arial,sans-serif" font-size="26" font-weight="800" fill="#3DA35D">4</text>
<text x="556.0" y="127" font-family="-apple-system,'Segoe UI',Roboto,Helvetica,Arial,sans-serif" font-size="11" fill="#9C9A94">surfaces</text>
<text x="24" y="156" font-family="-apple-system,'Segoe UI',Roboto,Helvetica,Arial,sans-serif" font-size="12" fill="#9C9A94">commits / day since June 21</text>
<line x1="24.0" y1="192" x2="696.0" y2="192" stroke="#2C2C2C" stroke-width="1"/>
<rect x="28.4" y="190.0" width="10.9" height="2.0" rx="2" fill="#D89030"/>
<rect x="48.2" y="190.0" width="10.9" height="2.0" rx="2" fill="#D89030"/>
<rect x="68.0" y="189.5" width="10.9" height="2.5" rx="2" fill="#D89030"/>
<rect x="87.7" y="189.5" width="10.9" height="2.5" rx="2" fill="#D89030"/>
<rect x="107.5" y="186.4" width="10.9" height="5.6" rx="2" fill="#D89030"/>
<rect x="127.3" y="184.6" width="10.9" height="7.4" rx="2" fill="#D89030"/>
<rect x="147.0" y="187.7" width="10.9" height="4.3" rx="2" fill="#D89030"/>
<rect x="166.8" y="190.0" width="10.9" height="2.0" rx="2" fill="#D89030"/>
<rect x="245.9" y="186.4" width="10.9" height="5.6" rx="2" fill="#D89030"/>
<rect x="265.6" y="189.5" width="10.9" height="2.5" rx="2" fill="#D89030"/>
<rect x="285.4" y="177.8" width="10.9" height="14.2" rx="2" fill="#D89030"/>
<rect x="305.2" y="172.8" width="10.9" height="19.2" rx="2" fill="#D89030"/>
<rect x="324.9" y="186.4" width="10.9" height="5.6" rx="2" fill="#D89030"/>
<rect x="344.7" y="190.0" width="10.9" height="2.0" rx="2" fill="#D89030"/>
<rect x="364.4" y="190.0" width="10.9" height="2.0" rx="2" fill="#D89030"/>
<rect x="384.2" y="184.0" width="10.9" height="8.0" rx="2" fill="#D89030"/>
<rect x="404.0" y="177.1" width="10.9" height="14.9" rx="2" fill="#D89030"/>
<rect x="423.7" y="172.8" width="10.9" height="19.2" rx="2" fill="#D89030"/>
<rect x="443.5" y="180.2" width="10.9" height="11.8" rx="2" fill="#D89030"/>
<rect x="463.3" y="184.6" width="10.9" height="7.4" rx="2" fill="#D89030"/>
<rect x="483.0" y="184.0" width="10.9" height="8.0" rx="2" fill="#D89030"/>
<rect x="502.8" y="182.7" width="10.9" height="9.3" rx="2" fill="#D89030"/>
<rect x="522.6" y="175.3" width="10.9" height="16.7" rx="2" fill="#D89030"/>
<rect x="542.3" y="169.1" width="10.9" height="22.9" rx="2" fill="#D89030"/>
<rect x="562.1" y="183.3" width="10.9" height="8.7" rx="2" fill="#D89030"/>
<rect x="581.9" y="188.9" width="10.9" height="3.1" rx="2" fill="#D89030"/>
<rect x="601.6" y="166.0" width="10.9" height="26.0" rx="2" fill="#D89030"/>
<rect x="621.4" y="177.1" width="10.9" height="14.9" rx="2" fill="#D89030"/>
<rect x="641.2" y="178.4" width="10.9" height="13.6" rx="2" fill="#D89030"/>
<rect x="660.9" y="188.9" width="10.9" height="3.1" rx="2" fill="#D89030"/>
<rect x="680.7" y="189.5" width="10.9" height="2.5" rx="2" fill="#D89030"/>
</svg>
