<svg xmlns="http://www.w3.org/2000/svg" width="728" height="210" viewBox="0 0 728 210" role="img" aria-label="Live repo vitals: 2,206 tests, 360 modules, 324 commits across 4 surfaces, with a commits-per-day sprint velocity chart since June 21">
<rect x="8" y="8" width="718" height="200" rx="18" fill="#0A0A0A"/>
<rect x="2" y="2" width="718" height="200" rx="18" fill="#181818" stroke="#FFFFFF" stroke-width="3"/>
<text x="24" y="34" font-family="-apple-system,'Segoe UI',Roboto,Helvetica,Arial,sans-serif" font-size="19" font-weight="700" fill="#F5F4F1">Built in a hackathon sprint</text>
<text x="24" y="56" font-family="-apple-system,'Segoe UI',Roboto,Helvetica,Arial,sans-serif" font-size="13" fill="#9C9A94">live repo vitals · auto-updated on every push to main</text>
<rect x="24.0" y="72" width="156.0" height="60" rx="12" fill="#202020" stroke="#2C2C2C" stroke-width="1"/>
<rect x="40.0" y="84" width="30" height="5" rx="2.5" fill="#4890C0"/>
<text x="40.0" y="114" font-family="-apple-system,'Segoe UI',Roboto,Helvetica,Arial,sans-serif" font-size="26" font-weight="800" fill="#4890C0">2,206</text>
<text x="40.0" y="127" font-family="-apple-system,'Segoe UI',Roboto,Helvetica,Arial,sans-serif" font-size="11" fill="#9C9A94">tests</text>
<rect x="196.0" y="72" width="156.0" height="60" rx="12" fill="#202020" stroke="#2C2C2C" stroke-width="1"/>
<rect x="212.0" y="84" width="30" height="5" rx="2.5" fill="#D89030"/>
<text x="212.0" y="114" font-family="-apple-system,'Segoe UI',Roboto,Helvetica,Arial,sans-serif" font-size="26" font-weight="800" fill="#D89030">360</text>
<text x="212.0" y="127" font-family="-apple-system,'Segoe UI',Roboto,Helvetica,Arial,sans-serif" font-size="11" fill="#9C9A94">modules</text>
<rect x="368.0" y="72" width="156.0" height="60" rx="12" fill="#202020" stroke="#2C2C2C" stroke-width="1"/>
<rect x="384.0" y="84" width="30" height="5" rx="2.5" fill="#D84830"/>
<text x="384.0" y="114" font-family="-apple-system,'Segoe UI',Roboto,Helvetica,Arial,sans-serif" font-size="26" font-weight="800" fill="#D84830">324</text>
<text x="384.0" y="127" font-family="-apple-system,'Segoe UI',Roboto,Helvetica,Arial,sans-serif" font-size="11" fill="#9C9A94">commits</text>
<rect x="540.0" y="72" width="156.0" height="60" rx="12" fill="#202020" stroke="#2C2C2C" stroke-width="1"/>
<rect x="556.0" y="84" width="30" height="5" rx="2.5" fill="#3DA35D"/>
<text x="556.0" y="114" font-family="-apple-system,'Segoe UI',Roboto,Helvetica,Arial,sans-serif" font-size="26" font-weight="800" fill="#3DA35D">4</text>
<text x="556.0" y="127" font-family="-apple-system,'Segoe UI',Roboto,Helvetica,Arial,sans-serif" font-size="11" fill="#9C9A94">surfaces</text>
<text x="24" y="156" font-family="-apple-system,'Segoe UI',Roboto,Helvetica,Arial,sans-serif" font-size="12" fill="#9C9A94">commits / day since June 21</text>
<line x1="24.0" y1="192" x2="696.0" y2="192" stroke="#2C2C2C" stroke-width="1"/>
<rect x="29.2" y="190.0" width="12.7" height="2.0" rx="2" fill="#D89030"/>
<rect x="52.4" y="190.0" width="12.7" height="2.0" rx="2" fill="#D89030"/>
<rect x="75.6" y="189.2" width="12.7" height="2.8" rx="2" fill="#D89030"/>
<rect x="98.7" y="189.2" width="12.7" height="2.8" rx="2" fill="#D89030"/>
<rect x="121.9" y="185.7" width="12.7" height="6.3" rx="2" fill="#D89030"/>
<rect x="145.1" y="183.6" width="12.7" height="8.4" rx="2" fill="#D89030"/>
<rect x="168.2" y="187.1" width="12.7" height="4.9" rx="2" fill="#D89030"/>
<rect x="191.4" y="190.0" width="12.7" height="2.0" rx="2" fill="#D89030"/>
<rect x="284.1" y="185.7" width="12.7" height="6.3" rx="2" fill="#D89030"/>
<rect x="307.3" y="189.2" width="12.7" height="2.8" rx="2" fill="#D89030"/>
<rect x="330.5" y="175.8" width="12.7" height="16.2" rx="2" fill="#D89030"/>
<rect x="353.6" y="170.2" width="12.7" height="21.8" rx="2" fill="#D89030"/>
<rect x="376.8" y="185.7" width="12.7" height="6.3" rx="2" fill="#D89030"/>
<rect x="400.0" y="190.0" width="12.7" height="2.0" rx="2" fill="#D89030"/>
<rect x="423.1" y="190.0" width="12.7" height="2.0" rx="2" fill="#D89030"/>
<rect x="446.3" y="182.9" width="12.7" height="9.1" rx="2" fill="#D89030"/>
<rect x="469.5" y="175.1" width="12.7" height="16.9" rx="2" fill="#D89030"/>
<rect x="492.7" y="170.2" width="12.7" height="21.8" rx="2" fill="#D89030"/>
<rect x="515.8" y="178.6" width="12.7" height="13.4" rx="2" fill="#D89030"/>
<rect x="539.0" y="183.6" width="12.7" height="8.4" rx="2" fill="#D89030"/>
<rect x="562.2" y="182.9" width="12.7" height="9.1" rx="2" fill="#D89030"/>
<rect x="585.4" y="181.5" width="12.7" height="10.5" rx="2" fill="#D89030"/>
<rect x="608.5" y="173.0" width="12.7" height="19.0" rx="2" fill="#D89030"/>
<rect x="631.7" y="166.0" width="12.7" height="26.0" rx="2" fill="#D89030"/>
<rect x="654.9" y="182.9" width="12.7" height="9.1" rx="2" fill="#D89030"/>
<rect x="678.0" y="190.0" width="12.7" height="2.0" rx="2" fill="#D89030"/>
</svg>
