<svg xmlns="http://www.w3.org/2000/svg" width="728" height="210" viewBox="0 0 728 210" role="img" aria-label="Live repo vitals: 4,108 tests, 522 modules, 719 commits across 4 surfaces, with a commits-per-day sprint velocity chart since June 21">
<rect x="8" y="8" width="718" height="200" rx="18" fill="#0A0A0A"/>
<rect x="2" y="2" width="718" height="200" rx="18" fill="#181818" stroke="#FFFFFF" stroke-width="3"/>
<text x="24" y="34" font-family="-apple-system,'Segoe UI',Roboto,Helvetica,Arial,sans-serif" font-size="19" font-weight="700" fill="#F5F4F1">Built in a hackathon sprint</text>
<text x="24" y="56" font-family="-apple-system,'Segoe UI',Roboto,Helvetica,Arial,sans-serif" font-size="13" fill="#9C9A94">live repo vitals · auto-updated on every push to main</text>
<rect x="24.0" y="72" width="156.0" height="60" rx="12" fill="#202020" stroke="#2C2C2C" stroke-width="1"/>
<rect x="40.0" y="84" width="30" height="5" rx="2.5" fill="#4890C0"/>
<text x="40.0" y="114" font-family="-apple-system,'Segoe UI',Roboto,Helvetica,Arial,sans-serif" font-size="26" font-weight="800" fill="#4890C0">4,108</text>
<text x="40.0" y="127" font-family="-apple-system,'Segoe UI',Roboto,Helvetica,Arial,sans-serif" font-size="11" fill="#9C9A94">tests</text>
<rect x="196.0" y="72" width="156.0" height="60" rx="12" fill="#202020" stroke="#2C2C2C" stroke-width="1"/>
<rect x="212.0" y="84" width="30" height="5" rx="2.5" fill="#D89030"/>
<text x="212.0" y="114" font-family="-apple-system,'Segoe UI',Roboto,Helvetica,Arial,sans-serif" font-size="26" font-weight="800" fill="#D89030">522</text>
<text x="212.0" y="127" font-family="-apple-system,'Segoe UI',Roboto,Helvetica,Arial,sans-serif" font-size="11" fill="#9C9A94">modules</text>
<rect x="368.0" y="72" width="156.0" height="60" rx="12" fill="#202020" stroke="#2C2C2C" stroke-width="1"/>
<rect x="384.0" y="84" width="30" height="5" rx="2.5" fill="#D84830"/>
<text x="384.0" y="114" font-family="-apple-system,'Segoe UI',Roboto,Helvetica,Arial,sans-serif" font-size="26" font-weight="800" fill="#D84830">719</text>
<text x="384.0" y="127" font-family="-apple-system,'Segoe UI',Roboto,Helvetica,Arial,sans-serif" font-size="11" fill="#9C9A94">commits</text>
<rect x="540.0" y="72" width="156.0" height="60" rx="12" fill="#202020" stroke="#2C2C2C" stroke-width="1"/>
<rect x="556.0" y="84" width="30" height="5" rx="2.5" fill="#3DA35D"/>
<text x="556.0" y="114" font-family="-apple-system,'Segoe UI',Roboto,Helvetica,Arial,sans-serif" font-size="26" font-weight="800" fill="#3DA35D">4</text>
<text x="556.0" y="127" font-family="-apple-system,'Segoe UI',Roboto,Helvetica,Arial,sans-serif" font-size="11" fill="#9C9A94">surfaces</text>
<text x="24" y="156" font-family="-apple-system,'Segoe UI',Roboto,Helvetica,Arial,sans-serif" font-size="12" fill="#9C9A94">commits / day since June 21</text>
<line x1="24.0" y1="192" x2="696.0" y2="192" stroke="#2C2C2C" stroke-width="1"/>
<rect x="26.0" y="190.0" width="4.9" height="2.0" rx="2" fill="#D89030"/>
<rect x="35.0" y="190.0" width="4.9" height="2.0" rx="2" fill="#D89030"/>
<rect x="43.9" y="189.5" width="4.9" height="2.5" rx="2" fill="#D89030"/>
<rect x="52.9" y="189.5" width="4.9" height="2.5" rx="2" fill="#D89030"/>
<rect x="61.9" y="186.4" width="4.9" height="5.6" rx="2" fill="#D89030"/>
<rect x="70.8" y="184.6" width="4.9" height="7.4" rx="2" fill="#D89030"/>
<rect x="79.8" y="187.7" width="4.9" height="4.3" rx="2" fill="#D89030"/>
<rect x="88.7" y="190.0" width="4.9" height="2.0" rx="2" fill="#D89030"/>
<rect x="124.6" y="186.4" width="4.9" height="5.6" rx="2" fill="#D89030"/>
<rect x="133.5" y="189.5" width="4.9" height="2.5" rx="2" fill="#D89030"/>
<rect x="142.5" y="177.8" width="4.9" height="14.2" rx="2" fill="#D89030"/>
<rect x="151.5" y="172.8" width="4.9" height="19.2" rx="2" fill="#D89030"/>
<rect x="160.4" y="186.4" width="4.9" height="5.6" rx="2" fill="#D89030"/>
<rect x="169.4" y="190.0" width="4.9" height="2.0" rx="2" fill="#D89030"/>
<rect x="178.3" y="190.0" width="4.9" height="2.0" rx="2" fill="#D89030"/>
<rect x="187.3" y="184.0" width="4.9" height="8.0" rx="2" fill="#D89030"/>
<rect x="196.3" y="177.1" width="4.9" height="14.9" rx="2" fill="#D89030"/>
<rect x="205.2" y="172.8" width="4.9" height="19.2" rx="2" fill="#D89030"/>
<rect x="214.2" y="180.2" width="4.9" height="11.8" rx="2" fill="#D89030"/>
<rect x="223.1" y="184.6" width="4.9" height="7.4" rx="2" fill="#D89030"/>
<rect x="232.1" y="184.0" width="4.9" height="8.0" rx="2" fill="#D89030"/>
<rect x="241.1" y="182.7" width="4.9" height="9.3" rx="2" fill="#D89030"/>
<rect x="250.0" y="175.3" width="4.9" height="16.7" rx="2" fill="#D89030"/>
<rect x="259.0" y="169.1" width="4.9" height="22.9" rx="2" fill="#D89030"/>
<rect x="267.9" y="183.3" width="4.9" height="8.7" rx="2" fill="#D89030"/>
<rect x="276.9" y="188.9" width="4.9" height="3.1" rx="2" fill="#D89030"/>
<rect x="285.9" y="166.0" width="4.9" height="26.0" rx="2" fill="#D89030"/>
<rect x="294.8" y="177.1" width="4.9" height="14.9" rx="2" fill="#D89030"/>
<rect x="303.8" y="178.4" width="4.9" height="13.6" rx="2" fill="#D89030"/>
<rect x="312.7" y="188.9" width="4.9" height="3.1" rx="2" fill="#D89030"/>
<rect x="321.7" y="185.8" width="4.9" height="6.2" rx="2" fill="#D89030"/>
<rect x="384.4" y="189.5" width="4.9" height="2.5" rx="2" fill="#D89030"/>
<rect x="411.3" y="188.3" width="4.9" height="3.7" rx="2" fill="#D89030"/>
<rect x="429.2" y="190.0" width="4.9" height="2.0" rx="2" fill="#D89030"/>
<rect x="438.2" y="185.2" width="4.9" height="6.8" rx="2" fill="#D89030"/>
<rect x="447.1" y="190.0" width="4.9" height="2.0" rx="2" fill="#D89030"/>
<rect x="518.8" y="184.6" width="4.9" height="7.4" rx="2" fill="#D89030"/>
<rect x="527.8" y="167.9" width="4.9" height="24.1" rx="2" fill="#D89030"/>
<rect x="536.7" y="184.6" width="4.9" height="7.4" rx="2" fill="#D89030"/>
<rect x="545.7" y="175.9" width="4.9" height="16.1" rx="2" fill="#D89030"/>
<rect x="554.7" y="185.2" width="4.9" height="6.8" rx="2" fill="#D89030"/>
<rect x="563.6" y="187.0" width="4.9" height="5.0" rx="2" fill="#D89030"/>
<rect x="572.6" y="188.3" width="4.9" height="3.7" rx="2" fill="#D89030"/>
<rect x="581.5" y="178.4" width="4.9" height="13.6" rx="2" fill="#D89030"/>
<rect x="590.5" y="179.6" width="4.9" height="12.4" rx="2" fill="#D89030"/>
<rect x="599.5" y="175.3" width="4.9" height="16.7" rx="2" fill="#D89030"/>
<rect x="608.4" y="188.3" width="4.9" height="3.7" rx="2" fill="#D89030"/>
<rect x="617.4" y="190.0" width="4.9" height="2.0" rx="2" fill="#D89030"/>
<rect x="626.3" y="171.6" width="4.9" height="20.4" rx="2" fill="#D89030"/>
<rect x="635.3" y="175.9" width="4.9" height="16.1" rx="2" fill="#D89030"/>
<rect x="644.3" y="190.0" width="4.9" height="2.0" rx="2" fill="#D89030"/>
<rect x="653.2" y="190.0" width="4.9" height="2.0" rx="2" fill="#D89030"/>
<rect x="662.2" y="190.0" width="4.9" height="2.0" rx="2" fill="#D89030"/>
<rect x="671.1" y="190.0" width="4.9" height="2.0" rx="2" fill="#D89030"/>
<rect x="680.1" y="190.0" width="4.9" height="2.0" rx="2" fill="#D89030"/>
<rect x="689.1" y="190.0" width="4.9" height="2.0" rx="2" fill="#D89030"/>
</svg>
