<svg xmlns="http://www.w3.org/2000/svg" width="728" height="210" viewBox="0 0 728 210" role="img" aria-label="Live repo vitals: 2,362 tests, 373 modules, 378 commits across 4 surfaces, with a commits-per-day sprint velocity chart since June 21">
<rect x="8" y="8" width="718" height="200" rx="18" fill="#0A0A0A"/>
<rect x="2" y="2" width="718" height="200" rx="18" fill="#181818" stroke="#FFFFFF" stroke-width="3"/>
<text x="24" y="34" font-family="-apple-system,'Segoe UI',Roboto,Helvetica,Arial,sans-serif" font-size="19" font-weight="700" fill="#F5F4F1">Built in a hackathon sprint</text>
<text x="24" y="56" font-family="-apple-system,'Segoe UI',Roboto,Helvetica,Arial,sans-serif" font-size="13" fill="#9C9A94">live repo vitals · auto-updated on every push to main</text>
<rect x="24.0" y="72" width="156.0" height="60" rx="12" fill="#202020" stroke="#2C2C2C" stroke-width="1"/>
<rect x="40.0" y="84" width="30" height="5" rx="2.5" fill="#4890C0"/>
<text x="40.0" y="114" font-family="-apple-system,'Segoe UI',Roboto,Helvetica,Arial,sans-serif" font-size="26" font-weight="800" fill="#4890C0">2,362</text>
<text x="40.0" y="127" font-family="-apple-system,'Segoe UI',Roboto,Helvetica,Arial,sans-serif" font-size="11" fill="#9C9A94">tests</text>
<rect x="196.0" y="72" width="156.0" height="60" rx="12" fill="#202020" stroke="#2C2C2C" stroke-width="1"/>
<rect x="212.0" y="84" width="30" height="5" rx="2.5" fill="#D89030"/>
<text x="212.0" y="114" font-family="-apple-system,'Segoe UI',Roboto,Helvetica,Arial,sans-serif" font-size="26" font-weight="800" fill="#D89030">373</text>
<text x="212.0" y="127" font-family="-apple-system,'Segoe UI',Roboto,Helvetica,Arial,sans-serif" font-size="11" fill="#9C9A94">modules</text>
<rect x="368.0" y="72" width="156.0" height="60" rx="12" fill="#202020" stroke="#2C2C2C" stroke-width="1"/>
<rect x="384.0" y="84" width="30" height="5" rx="2.5" fill="#D84830"/>
<text x="384.0" y="114" font-family="-apple-system,'Segoe UI',Roboto,Helvetica,Arial,sans-serif" font-size="26" font-weight="800" fill="#D84830">378</text>
<text x="384.0" y="127" font-family="-apple-system,'Segoe UI',Roboto,Helvetica,Arial,sans-serif" font-size="11" fill="#9C9A94">commits</text>
<rect x="540.0" y="72" width="156.0" height="60" rx="12" fill="#202020" stroke="#2C2C2C" stroke-width="1"/>
<rect x="556.0" y="84" width="30" height="5" rx="2.5" fill="#3DA35D"/>
<text x="556.0" y="114" font-family="-apple-system,'Segoe UI',Roboto,Helvetica,Arial,sans-serif" font-size="26" font-weight="800" fill="#3DA35D">4</text>
<text x="556.0" y="127" font-family="-apple-system,'Segoe UI',Roboto,Helvetica,Arial,sans-serif" font-size="11" fill="#9C9A94">surfaces</text>
<text x="24" y="156" font-family="-apple-system,'Segoe UI',Roboto,Helvetica,Arial,sans-serif" font-size="12" fill="#9C9A94">commits / day since June 21</text>
<line x1="24.0" y1="192" x2="696.0" y2="192" stroke="#2C2C2C" stroke-width="1"/>
<rect x="28.9" y="190.0" width="11.9" height="2.0" rx="2" fill="#D89030"/>
<rect x="50.6" y="190.0" width="11.9" height="2.0" rx="2" fill="#D89030"/>
<rect x="72.2" y="189.3" width="11.9" height="2.7" rx="2" fill="#D89030"/>
<rect x="93.9" y="189.3" width="11.9" height="2.7" rx="2" fill="#D89030"/>
<rect x="115.6" y="186.0" width="11.9" height="6.0" rx="2" fill="#D89030"/>
<rect x="137.3" y="184.0" width="11.9" height="8.0" rx="2" fill="#D89030"/>
<rect x="158.9" y="187.3" width="11.9" height="4.7" rx="2" fill="#D89030"/>
<rect x="180.6" y="190.0" width="11.9" height="2.0" rx="2" fill="#D89030"/>
<rect x="267.3" y="186.0" width="11.9" height="6.0" rx="2" fill="#D89030"/>
<rect x="289.0" y="189.3" width="11.9" height="2.7" rx="2" fill="#D89030"/>
<rect x="310.7" y="176.7" width="11.9" height="15.3" rx="2" fill="#D89030"/>
<rect x="332.4" y="171.3" width="11.9" height="20.7" rx="2" fill="#D89030"/>
<rect x="354.0" y="186.0" width="11.9" height="6.0" rx="2" fill="#D89030"/>
<rect x="375.7" y="190.0" width="11.9" height="2.0" rx="2" fill="#D89030"/>
<rect x="397.4" y="190.0" width="11.9" height="2.0" rx="2" fill="#D89030"/>
<rect x="419.1" y="183.3" width="11.9" height="8.7" rx="2" fill="#D89030"/>
<rect x="440.7" y="176.0" width="11.9" height="16.0" rx="2" fill="#D89030"/>
<rect x="462.4" y="171.3" width="11.9" height="20.7" rx="2" fill="#D89030"/>
<rect x="484.1" y="179.3" width="11.9" height="12.7" rx="2" fill="#D89030"/>
<rect x="505.8" y="184.0" width="11.9" height="8.0" rx="2" fill="#D89030"/>
<rect x="527.5" y="183.3" width="11.9" height="8.7" rx="2" fill="#D89030"/>
<rect x="549.1" y="182.0" width="11.9" height="10.0" rx="2" fill="#D89030"/>
<rect x="570.8" y="174.0" width="11.9" height="18.0" rx="2" fill="#D89030"/>
<rect x="592.5" y="167.3" width="11.9" height="24.7" rx="2" fill="#D89030"/>
<rect x="614.2" y="182.7" width="11.9" height="9.3" rx="2" fill="#D89030"/>
<rect x="635.8" y="188.7" width="11.9" height="3.3" rx="2" fill="#D89030"/>
<rect x="657.5" y="166.0" width="11.9" height="26.0" rx="2" fill="#D89030"/>
<rect x="679.2" y="185.3" width="11.9" height="6.7" rx="2" fill="#D89030"/>
</svg>
