<svg xmlns="http://www.w3.org/2000/svg" width="728" height="210" viewBox="0 0 728 210" role="img" aria-label="Live repo vitals: 2,511 tests, 386 modules, 418 commits across 4 surfaces, with a commits-per-day sprint velocity chart since June 21">
<rect x="8" y="8" width="718" height="200" rx="18" fill="#0A0A0A"/>
<rect x="2" y="2" width="718" height="200" rx="18" fill="#181818" stroke="#FFFFFF" stroke-width="3"/>
<text x="24" y="34" font-family="-apple-system,'Segoe UI',Roboto,Helvetica,Arial,sans-serif" font-size="19" font-weight="700" fill="#F5F4F1">Built in a hackathon sprint</text>
<text x="24" y="56" font-family="-apple-system,'Segoe UI',Roboto,Helvetica,Arial,sans-serif" font-size="13" fill="#9C9A94">live repo vitals · auto-updated on every push to main</text>
<rect x="24.0" y="72" width="156.0" height="60" rx="12" fill="#202020" stroke="#2C2C2C" stroke-width="1"/>
<rect x="40.0" y="84" width="30" height="5" rx="2.5" fill="#4890C0"/>
<text x="40.0" y="114" font-family="-apple-system,'Segoe UI',Roboto,Helvetica,Arial,sans-serif" font-size="26" font-weight="800" fill="#4890C0">2,511</text>
<text x="40.0" y="127" font-family="-apple-system,'Segoe UI',Roboto,Helvetica,Arial,sans-serif" font-size="11" fill="#9C9A94">tests</text>
<rect x="196.0" y="72" width="156.0" height="60" rx="12" fill="#202020" stroke="#2C2C2C" stroke-width="1"/>
<rect x="212.0" y="84" width="30" height="5" rx="2.5" fill="#D89030"/>
<text x="212.0" y="114" font-family="-apple-system,'Segoe UI',Roboto,Helvetica,Arial,sans-serif" font-size="26" font-weight="800" fill="#D89030">386</text>
<text x="212.0" y="127" font-family="-apple-system,'Segoe UI',Roboto,Helvetica,Arial,sans-serif" font-size="11" fill="#9C9A94">modules</text>
<rect x="368.0" y="72" width="156.0" height="60" rx="12" fill="#202020" stroke="#2C2C2C" stroke-width="1"/>
<rect x="384.0" y="84" width="30" height="5" rx="2.5" fill="#D84830"/>
<text x="384.0" y="114" font-family="-apple-system,'Segoe UI',Roboto,Helvetica,Arial,sans-serif" font-size="26" font-weight="800" fill="#D84830">418</text>
<text x="384.0" y="127" font-family="-apple-system,'Segoe UI',Roboto,Helvetica,Arial,sans-serif" font-size="11" fill="#9C9A94">commits</text>
<rect x="540.0" y="72" width="156.0" height="60" rx="12" fill="#202020" stroke="#2C2C2C" stroke-width="1"/>
<rect x="556.0" y="84" width="30" height="5" rx="2.5" fill="#3DA35D"/>
<text x="556.0" y="114" font-family="-apple-system,'Segoe UI',Roboto,Helvetica,Arial,sans-serif" font-size="26" font-weight="800" fill="#3DA35D">4</text>
<text x="556.0" y="127" font-family="-apple-system,'Segoe UI',Roboto,Helvetica,Arial,sans-serif" font-size="11" fill="#9C9A94">surfaces</text>
<text x="24" y="156" font-family="-apple-system,'Segoe UI',Roboto,Helvetica,Arial,sans-serif" font-size="12" fill="#9C9A94">commits / day since June 21</text>
<line x1="24.0" y1="192" x2="696.0" y2="192" stroke="#2C2C2C" stroke-width="1"/>
<rect x="28.6" y="190.0" width="11.2" height="2.0" rx="2" fill="#D89030"/>
<rect x="48.9" y="190.0" width="11.2" height="2.0" rx="2" fill="#D89030"/>
<rect x="69.3" y="189.5" width="11.2" height="2.5" rx="2" fill="#D89030"/>
<rect x="89.7" y="189.5" width="11.2" height="2.5" rx="2" fill="#D89030"/>
<rect x="110.0" y="186.4" width="11.2" height="5.6" rx="2" fill="#D89030"/>
<rect x="130.4" y="184.6" width="11.2" height="7.4" rx="2" fill="#D89030"/>
<rect x="150.8" y="187.7" width="11.2" height="4.3" rx="2" fill="#D89030"/>
<rect x="171.1" y="190.0" width="11.2" height="2.0" rx="2" fill="#D89030"/>
<rect x="252.6" y="186.4" width="11.2" height="5.6" rx="2" fill="#D89030"/>
<rect x="272.9" y="189.5" width="11.2" height="2.5" rx="2" fill="#D89030"/>
<rect x="293.3" y="177.8" width="11.2" height="14.2" rx="2" fill="#D89030"/>
<rect x="313.7" y="172.8" width="11.2" height="19.2" rx="2" fill="#D89030"/>
<rect x="334.0" y="186.4" width="11.2" height="5.6" rx="2" fill="#D89030"/>
<rect x="354.4" y="190.0" width="11.2" height="2.0" rx="2" fill="#D89030"/>
<rect x="374.8" y="190.0" width="11.2" height="2.0" rx="2" fill="#D89030"/>
<rect x="395.1" y="184.0" width="11.2" height="8.0" rx="2" fill="#D89030"/>
<rect x="415.5" y="177.1" width="11.2" height="14.9" rx="2" fill="#D89030"/>
<rect x="435.9" y="172.8" width="11.2" height="19.2" rx="2" fill="#D89030"/>
<rect x="456.2" y="180.2" width="11.2" height="11.8" rx="2" fill="#D89030"/>
<rect x="476.6" y="184.6" width="11.2" height="7.4" rx="2" fill="#D89030"/>
<rect x="496.9" y="184.0" width="11.2" height="8.0" rx="2" fill="#D89030"/>
<rect x="517.3" y="182.7" width="11.2" height="9.3" rx="2" fill="#D89030"/>
<rect x="537.7" y="175.3" width="11.2" height="16.7" rx="2" fill="#D89030"/>
<rect x="558.0" y="169.1" width="11.2" height="22.9" rx="2" fill="#D89030"/>
<rect x="578.4" y="183.3" width="11.2" height="8.7" rx="2" fill="#D89030"/>
<rect x="598.8" y="188.9" width="11.2" height="3.1" rx="2" fill="#D89030"/>
<rect x="619.1" y="166.0" width="11.2" height="26.0" rx="2" fill="#D89030"/>
<rect x="639.5" y="177.1" width="11.2" height="14.9" rx="2" fill="#D89030"/>
<rect x="659.9" y="178.4" width="11.2" height="13.6" rx="2" fill="#D89030"/>
<rect x="680.2" y="190.0" width="11.2" height="2.0" rx="2" fill="#D89030"/>
</svg>
