<svg xmlns="http://www.w3.org/2000/svg" width="728" height="210" viewBox="0 0 728 210" role="img" aria-label="Live repo vitals: 1,865 tests, 343 modules, 276 commits across 4 surfaces, with a commits-per-day sprint velocity chart since June 21">
<rect x="8" y="8" width="718" height="200" rx="18" fill="#0A0A0A"/>
<rect x="2" y="2" width="718" height="200" rx="18" fill="#181818" stroke="#FFFFFF" stroke-width="3"/>
<text x="24" y="34" font-family="-apple-system,'Segoe UI',Roboto,Helvetica,Arial,sans-serif" font-size="19" font-weight="700" fill="#F5F4F1">Built in a hackathon sprint</text>
<text x="24" y="56" font-family="-apple-system,'Segoe UI',Roboto,Helvetica,Arial,sans-serif" font-size="13" fill="#9C9A94">live repo vitals · auto-updated on every push to main</text>
<rect x="24.0" y="72" width="156.0" height="60" rx="12" fill="#202020" stroke="#2C2C2C" stroke-width="1"/>
<rect x="40.0" y="84" width="30" height="5" rx="2.5" fill="#4890C0"/>
<text x="40.0" y="114" font-family="-apple-system,'Segoe UI',Roboto,Helvetica,Arial,sans-serif" font-size="26" font-weight="800" fill="#4890C0">1,865</text>
<text x="40.0" y="127" font-family="-apple-system,'Segoe UI',Roboto,Helvetica,Arial,sans-serif" font-size="11" fill="#9C9A94">tests</text>
<rect x="196.0" y="72" width="156.0" height="60" rx="12" fill="#202020" stroke="#2C2C2C" stroke-width="1"/>
<rect x="212.0" y="84" width="30" height="5" rx="2.5" fill="#D89030"/>
<text x="212.0" y="114" font-family="-apple-system,'Segoe UI',Roboto,Helvetica,Arial,sans-serif" font-size="26" font-weight="800" fill="#D89030">343</text>
<text x="212.0" y="127" font-family="-apple-system,'Segoe UI',Roboto,Helvetica,Arial,sans-serif" font-size="11" fill="#9C9A94">modules</text>
<rect x="368.0" y="72" width="156.0" height="60" rx="12" fill="#202020" stroke="#2C2C2C" stroke-width="1"/>
<rect x="384.0" y="84" width="30" height="5" rx="2.5" fill="#D84830"/>
<text x="384.0" y="114" font-family="-apple-system,'Segoe UI',Roboto,Helvetica,Arial,sans-serif" font-size="26" font-weight="800" fill="#D84830">276</text>
<text x="384.0" y="127" font-family="-apple-system,'Segoe UI',Roboto,Helvetica,Arial,sans-serif" font-size="11" fill="#9C9A94">commits</text>
<rect x="540.0" y="72" width="156.0" height="60" rx="12" fill="#202020" stroke="#2C2C2C" stroke-width="1"/>
<rect x="556.0" y="84" width="30" height="5" rx="2.5" fill="#3DA35D"/>
<text x="556.0" y="114" font-family="-apple-system,'Segoe UI',Roboto,Helvetica,Arial,sans-serif" font-size="26" font-weight="800" fill="#3DA35D">4</text>
<text x="556.0" y="127" font-family="-apple-system,'Segoe UI',Roboto,Helvetica,Arial,sans-serif" font-size="11" fill="#9C9A94">surfaces</text>
<text x="24" y="156" font-family="-apple-system,'Segoe UI',Roboto,Helvetica,Arial,sans-serif" font-size="12" fill="#9C9A94">commits / day since June 21</text>
<line x1="24.0" y1="192" x2="696.0" y2="192" stroke="#2C2C2C" stroke-width="1"/>
<rect x="29.6" y="190.0" width="13.7" height="2.0" rx="2" fill="#D89030"/>
<rect x="54.5" y="190.0" width="13.7" height="2.0" rx="2" fill="#D89030"/>
<rect x="79.4" y="188.6" width="13.7" height="3.4" rx="2" fill="#D89030"/>
<rect x="104.3" y="188.6" width="13.7" height="3.4" rx="2" fill="#D89030"/>
<rect x="129.2" y="184.5" width="13.7" height="7.5" rx="2" fill="#D89030"/>
<rect x="154.0" y="181.9" width="13.7" height="10.1" rx="2" fill="#D89030"/>
<rect x="178.9" y="186.1" width="13.7" height="5.9" rx="2" fill="#D89030"/>
<rect x="203.8" y="190.0" width="13.7" height="2.0" rx="2" fill="#D89030"/>
<rect x="303.4" y="184.5" width="13.7" height="7.5" rx="2" fill="#D89030"/>
<rect x="328.3" y="188.6" width="13.7" height="3.4" rx="2" fill="#D89030"/>
<rect x="353.2" y="172.7" width="13.7" height="19.3" rx="2" fill="#D89030"/>
<rect x="378.0" y="166.0" width="13.7" height="26.0" rx="2" fill="#D89030"/>
<rect x="402.9" y="184.5" width="13.7" height="7.5" rx="2" fill="#D89030"/>
<rect x="427.8" y="190.0" width="13.7" height="2.0" rx="2" fill="#D89030"/>
<rect x="452.7" y="190.0" width="13.7" height="2.0" rx="2" fill="#D89030"/>
<rect x="477.6" y="181.1" width="13.7" height="10.9" rx="2" fill="#D89030"/>
<rect x="502.5" y="171.9" width="13.7" height="20.1" rx="2" fill="#D89030"/>
<rect x="527.4" y="166.0" width="13.7" height="26.0" rx="2" fill="#D89030"/>
<rect x="552.3" y="176.1" width="13.7" height="15.9" rx="2" fill="#D89030"/>
<rect x="577.2" y="181.9" width="13.7" height="10.1" rx="2" fill="#D89030"/>
<rect x="602.0" y="181.1" width="13.7" height="10.9" rx="2" fill="#D89030"/>
<rect x="626.9" y="179.4" width="13.7" height="12.6" rx="2" fill="#D89030"/>
<rect x="651.8" y="174.4" width="13.7" height="17.6" rx="2" fill="#D89030"/>
<rect x="676.7" y="184.5" width="13.7" height="7.5" rx="2" fill="#D89030"/>
</svg>
