<svg xmlns="http://www.w3.org/2000/svg" width="728" height="210" viewBox="0 0 728 210" role="img" aria-label="Live repo vitals: 1,497 tests, 289 modules, 193 commits across 3 surfaces, with a commits-per-day sprint velocity chart since June 21">
<rect x="8" y="8" width="718" height="200" rx="18" fill="#0A0A0A"/>
<rect x="2" y="2" width="718" height="200" rx="18" fill="#181818" stroke="#FFFFFF" stroke-width="3"/>
<text x="24" y="34" font-family="-apple-system,'Segoe UI',Roboto,Helvetica,Arial,sans-serif" font-size="19" font-weight="700" fill="#F5F4F1">Built in a hackathon sprint</text>
<text x="24" y="56" font-family="-apple-system,'Segoe UI',Roboto,Helvetica,Arial,sans-serif" font-size="13" fill="#9C9A94">live repo vitals · auto-updated on every push to main</text>
<rect x="24.0" y="72" width="156.0" height="60" rx="12" fill="#202020" stroke="#2C2C2C" stroke-width="1"/>
<rect x="40.0" y="84" width="30" height="5" rx="2.5" fill="#4890C0"/>
<text x="40.0" y="114" font-family="-apple-system,'Segoe UI',Roboto,Helvetica,Arial,sans-serif" font-size="26" font-weight="800" fill="#4890C0">1,497</text>
<text x="40.0" y="127" font-family="-apple-system,'Segoe UI',Roboto,Helvetica,Arial,sans-serif" font-size="11" fill="#9C9A94">tests</text>
<rect x="196.0" y="72" width="156.0" height="60" rx="12" fill="#202020" stroke="#2C2C2C" stroke-width="1"/>
<rect x="212.0" y="84" width="30" height="5" rx="2.5" fill="#D89030"/>
<text x="212.0" y="114" font-family="-apple-system,'Segoe UI',Roboto,Helvetica,Arial,sans-serif" font-size="26" font-weight="800" fill="#D89030">289</text>
<text x="212.0" y="127" font-family="-apple-system,'Segoe UI',Roboto,Helvetica,Arial,sans-serif" font-size="11" fill="#9C9A94">modules</text>
<rect x="368.0" y="72" width="156.0" height="60" rx="12" fill="#202020" stroke="#2C2C2C" stroke-width="1"/>
<rect x="384.0" y="84" width="30" height="5" rx="2.5" fill="#D84830"/>
<text x="384.0" y="114" font-family="-apple-system,'Segoe UI',Roboto,Helvetica,Arial,sans-serif" font-size="26" font-weight="800" fill="#D84830">193</text>
<text x="384.0" y="127" font-family="-apple-system,'Segoe UI',Roboto,Helvetica,Arial,sans-serif" font-size="11" fill="#9C9A94">commits</text>
<rect x="540.0" y="72" width="156.0" height="60" rx="12" fill="#202020" stroke="#2C2C2C" stroke-width="1"/>
<rect x="556.0" y="84" width="30" height="5" rx="2.5" fill="#3DA35D"/>
<text x="556.0" y="114" font-family="-apple-system,'Segoe UI',Roboto,Helvetica,Arial,sans-serif" font-size="26" font-weight="800" fill="#3DA35D">3</text>
<text x="556.0" y="127" font-family="-apple-system,'Segoe UI',Roboto,Helvetica,Arial,sans-serif" font-size="11" fill="#9C9A94">surfaces</text>
<text x="24" y="156" font-family="-apple-system,'Segoe UI',Roboto,Helvetica,Arial,sans-serif" font-size="12" fill="#9C9A94">commits / day since June 21</text>
<line x1="24.0" y1="192" x2="696.0" y2="192" stroke="#2C2C2C" stroke-width="1"/>
<rect x="30.9" y="190.0" width="16.8" height="2.0" rx="2" fill="#D89030"/>
<rect x="61.4" y="190.0" width="16.8" height="2.0" rx="2" fill="#D89030"/>
<rect x="92.0" y="188.6" width="16.8" height="3.4" rx="2" fill="#D89030"/>
<rect x="122.5" y="188.6" width="16.8" height="3.4" rx="2" fill="#D89030"/>
<rect x="153.1" y="184.5" width="16.8" height="7.5" rx="2" fill="#D89030"/>
<rect x="183.6" y="181.9" width="16.8" height="10.1" rx="2" fill="#D89030"/>
<rect x="214.1" y="186.1" width="16.8" height="5.9" rx="2" fill="#D89030"/>
<rect x="244.7" y="190.0" width="16.8" height="2.0" rx="2" fill="#D89030"/>
<rect x="366.9" y="184.5" width="16.8" height="7.5" rx="2" fill="#D89030"/>
<rect x="397.4" y="188.6" width="16.8" height="3.4" rx="2" fill="#D89030"/>
<rect x="428.0" y="172.7" width="16.8" height="19.3" rx="2" fill="#D89030"/>
<rect x="458.5" y="166.0" width="16.8" height="26.0" rx="2" fill="#D89030"/>
<rect x="489.1" y="184.5" width="16.8" height="7.5" rx="2" fill="#D89030"/>
<rect x="519.6" y="190.0" width="16.8" height="2.0" rx="2" fill="#D89030"/>
<rect x="550.1" y="190.0" width="16.8" height="2.0" rx="2" fill="#D89030"/>
<rect x="580.7" y="181.1" width="16.8" height="10.9" rx="2" fill="#D89030"/>
<rect x="611.2" y="171.9" width="16.8" height="20.1" rx="2" fill="#D89030"/>
<rect x="641.8" y="166.0" width="16.8" height="26.0" rx="2" fill="#D89030"/>
<rect x="672.3" y="187.0" width="16.8" height="5.0" rx="2" fill="#D89030"/>
</svg>
