<svg xmlns="http://www.w3.org/2000/svg" width="728" height="210" viewBox="0 0 728 210" role="img" aria-label="Live repo vitals: 3,283 tests, 456 modules, 527 commits across 4 surfaces, with a commits-per-day sprint velocity chart since June 21">
<rect x="8" y="8" width="718" height="200" rx="18" fill="#0A0A0A"/>
<rect x="2" y="2" width="718" height="200" rx="18" fill="#181818" stroke="#FFFFFF" stroke-width="3"/>
<text x="24" y="34" font-family="-apple-system,'Segoe UI',Roboto,Helvetica,Arial,sans-serif" font-size="19" font-weight="700" fill="#F5F4F1">Built in a hackathon sprint</text>
<text x="24" y="56" font-family="-apple-system,'Segoe UI',Roboto,Helvetica,Arial,sans-serif" font-size="13" fill="#9C9A94">live repo vitals · auto-updated on every push to main</text>
<rect x="24.0" y="72" width="156.0" height="60" rx="12" fill="#202020" stroke="#2C2C2C" stroke-width="1"/>
<rect x="40.0" y="84" width="30" height="5" rx="2.5" fill="#4890C0"/>
<text x="40.0" y="114" font-family="-apple-system,'Segoe UI',Roboto,Helvetica,Arial,sans-serif" font-size="26" font-weight="800" fill="#4890C0">3,283</text>
<text x="40.0" y="127" font-family="-apple-system,'Segoe UI',Roboto,Helvetica,Arial,sans-serif" font-size="11" fill="#9C9A94">tests</text>
<rect x="196.0" y="72" width="156.0" height="60" rx="12" fill="#202020" stroke="#2C2C2C" stroke-width="1"/>
<rect x="212.0" y="84" width="30" height="5" rx="2.5" fill="#D89030"/>
<text x="212.0" y="114" font-family="-apple-system,'Segoe UI',Roboto,Helvetica,Arial,sans-serif" font-size="26" font-weight="800" fill="#D89030">456</text>
<text x="212.0" y="127" font-family="-apple-system,'Segoe UI',Roboto,Helvetica,Arial,sans-serif" font-size="11" fill="#9C9A94">modules</text>
<rect x="368.0" y="72" width="156.0" height="60" rx="12" fill="#202020" stroke="#2C2C2C" stroke-width="1"/>
<rect x="384.0" y="84" width="30" height="5" rx="2.5" fill="#D84830"/>
<text x="384.0" y="114" font-family="-apple-system,'Segoe UI',Roboto,Helvetica,Arial,sans-serif" font-size="26" font-weight="800" fill="#D84830">527</text>
<text x="384.0" y="127" font-family="-apple-system,'Segoe UI',Roboto,Helvetica,Arial,sans-serif" font-size="11" fill="#9C9A94">commits</text>
<rect x="540.0" y="72" width="156.0" height="60" rx="12" fill="#202020" stroke="#2C2C2C" stroke-width="1"/>
<rect x="556.0" y="84" width="30" height="5" rx="2.5" fill="#3DA35D"/>
<text x="556.0" y="114" font-family="-apple-system,'Segoe UI',Roboto,Helvetica,Arial,sans-serif" font-size="26" font-weight="800" fill="#3DA35D">4</text>
<text x="556.0" y="127" font-family="-apple-system,'Segoe UI',Roboto,Helvetica,Arial,sans-serif" font-size="11" fill="#9C9A94">surfaces</text>
<text x="24" y="156" font-family="-apple-system,'Segoe UI',Roboto,Helvetica,Arial,sans-serif" font-size="12" fill="#9C9A94">commits / day since June 21</text>
<line x1="24.0" y1="192" x2="696.0" y2="192" stroke="#2C2C2C" stroke-width="1"/>
<rect x="26.6" y="190.0" width="6.3" height="2.0" rx="2" fill="#D89030"/>
<rect x="38.0" y="190.0" width="6.3" height="2.0" rx="2" fill="#D89030"/>
<rect x="49.3" y="189.5" width="6.3" height="2.5" rx="2" fill="#D89030"/>
<rect x="60.7" y="189.5" width="6.3" height="2.5" rx="2" fill="#D89030"/>
<rect x="72.1" y="186.4" width="6.3" height="5.6" rx="2" fill="#D89030"/>
<rect x="83.5" y="184.6" width="6.3" height="7.4" rx="2" fill="#D89030"/>
<rect x="94.9" y="187.7" width="6.3" height="4.3" rx="2" fill="#D89030"/>
<rect x="106.3" y="190.0" width="6.3" height="2.0" rx="2" fill="#D89030"/>
<rect x="151.9" y="186.4" width="6.3" height="5.6" rx="2" fill="#D89030"/>
<rect x="163.2" y="189.5" width="6.3" height="2.5" rx="2" fill="#D89030"/>
<rect x="174.6" y="177.8" width="6.3" height="14.2" rx="2" fill="#D89030"/>
<rect x="186.0" y="172.8" width="6.3" height="19.2" rx="2" fill="#D89030"/>
<rect x="197.4" y="186.4" width="6.3" height="5.6" rx="2" fill="#D89030"/>
<rect x="208.8" y="190.0" width="6.3" height="2.0" rx="2" fill="#D89030"/>
<rect x="220.2" y="190.0" width="6.3" height="2.0" rx="2" fill="#D89030"/>
<rect x="231.6" y="184.0" width="6.3" height="8.0" rx="2" fill="#D89030"/>
<rect x="243.0" y="177.1" width="6.3" height="14.9" rx="2" fill="#D89030"/>
<rect x="254.4" y="172.8" width="6.3" height="19.2" rx="2" fill="#D89030"/>
<rect x="265.7" y="180.2" width="6.3" height="11.8" rx="2" fill="#D89030"/>
<rect x="277.1" y="184.6" width="6.3" height="7.4" rx="2" fill="#D89030"/>
<rect x="288.5" y="184.0" width="6.3" height="8.0" rx="2" fill="#D89030"/>
<rect x="299.9" y="182.7" width="6.3" height="9.3" rx="2" fill="#D89030"/>
<rect x="311.3" y="175.3" width="6.3" height="16.7" rx="2" fill="#D89030"/>
<rect x="322.7" y="169.1" width="6.3" height="22.9" rx="2" fill="#D89030"/>
<rect x="334.1" y="183.3" width="6.3" height="8.7" rx="2" fill="#D89030"/>
<rect x="345.5" y="188.9" width="6.3" height="3.1" rx="2" fill="#D89030"/>
<rect x="356.9" y="166.0" width="6.3" height="26.0" rx="2" fill="#D89030"/>
<rect x="368.3" y="177.1" width="6.3" height="14.9" rx="2" fill="#D89030"/>
<rect x="379.6" y="178.4" width="6.3" height="13.6" rx="2" fill="#D89030"/>
<rect x="391.0" y="188.9" width="6.3" height="3.1" rx="2" fill="#D89030"/>
<rect x="402.4" y="185.8" width="6.3" height="6.2" rx="2" fill="#D89030"/>
<rect x="482.2" y="189.5" width="6.3" height="2.5" rx="2" fill="#D89030"/>
<rect x="516.3" y="188.3" width="6.3" height="3.7" rx="2" fill="#D89030"/>
<rect x="539.1" y="190.0" width="6.3" height="2.0" rx="2" fill="#D89030"/>
<rect x="550.5" y="185.2" width="6.3" height="6.8" rx="2" fill="#D89030"/>
<rect x="561.9" y="190.0" width="6.3" height="2.0" rx="2" fill="#D89030"/>
<rect x="653.0" y="184.6" width="6.3" height="7.4" rx="2" fill="#D89030"/>
<rect x="664.4" y="167.9" width="6.3" height="24.1" rx="2" fill="#D89030"/>
<rect x="675.8" y="184.6" width="6.3" height="7.4" rx="2" fill="#D89030"/>
<rect x="687.2" y="188.3" width="6.3" height="3.7" rx="2" fill="#D89030"/>
</svg>
