<svg xmlns="http://www.w3.org/2000/svg" width="728" height="210" viewBox="0 0 728 210" role="img" aria-label="Live repo vitals: 2,206 tests, 360 modules, 322 commits across 4 surfaces, with a commits-per-day sprint velocity chart since June 21">
<rect x="8" y="8" width="718" height="200" rx="18" fill="#0A0A0A"/>
<rect x="2" y="2" width="718" height="200" rx="18" fill="#181818" stroke="#FFFFFF" stroke-width="3"/>
<text x="24" y="34" font-family="-apple-system,'Segoe UI',Roboto,Helvetica,Arial,sans-serif" font-size="19" font-weight="700" fill="#F5F4F1">Built in a hackathon sprint</text>
<text x="24" y="56" font-family="-apple-system,'Segoe UI',Roboto,Helvetica,Arial,sans-serif" font-size="13" fill="#9C9A94">live repo vitals · auto-updated on every push to main</text>
<rect x="24.0" y="72" width="156.0" height="60" rx="12" fill="#202020" stroke="#2C2C2C" stroke-width="1"/>
<rect x="40.0" y="84" width="30" height="5" rx="2.5" fill="#4890C0"/>
<text x="40.0" y="114" font-family="-apple-system,'Segoe UI',Roboto,Helvetica,Arial,sans-serif" font-size="26" font-weight="800" fill="#4890C0">2,206</text>
<text x="40.0" y="127" font-family="-apple-system,'Segoe UI',Roboto,Helvetica,Arial,sans-serif" font-size="11" fill="#9C9A94">tests</text>
<rect x="196.0" y="72" width="156.0" height="60" rx="12" fill="#202020" stroke="#2C2C2C" stroke-width="1"/>
<rect x="212.0" y="84" width="30" height="5" rx="2.5" fill="#D89030"/>
<text x="212.0" y="114" font-family="-apple-system,'Segoe UI',Roboto,Helvetica,Arial,sans-serif" font-size="26" font-weight="800" fill="#D89030">360</text>
<text x="212.0" y="127" font-family="-apple-system,'Segoe UI',Roboto,Helvetica,Arial,sans-serif" font-size="11" fill="#9C9A94">modules</text>
<rect x="368.0" y="72" width="156.0" height="60" rx="12" fill="#202020" stroke="#2C2C2C" stroke-width="1"/>
<rect x="384.0" y="84" width="30" height="5" rx="2.5" fill="#D84830"/>
<text x="384.0" y="114" font-family="-apple-system,'Segoe UI',Roboto,Helvetica,Arial,sans-serif" font-size="26" font-weight="800" fill="#D84830">322</text>
<text x="384.0" y="127" font-family="-apple-system,'Segoe UI',Roboto,Helvetica,Arial,sans-serif" font-size="11" fill="#9C9A94">commits</text>
<rect x="540.0" y="72" width="156.0" height="60" rx="12" fill="#202020" stroke="#2C2C2C" stroke-width="1"/>
<rect x="556.0" y="84" width="30" height="5" rx="2.5" fill="#3DA35D"/>
<text x="556.0" y="114" font-family="-apple-system,'Segoe UI',Roboto,Helvetica,Arial,sans-serif" font-size="26" font-weight="800" fill="#3DA35D">4</text>
<text x="556.0" y="127" font-family="-apple-system,'Segoe UI',Roboto,Helvetica,Arial,sans-serif" font-size="11" fill="#9C9A94">surfaces</text>
<text x="24" y="156" font-family="-apple-system,'Segoe UI',Roboto,Helvetica,Arial,sans-serif" font-size="12" fill="#9C9A94">commits / day since June 21</text>
<line x1="24.0" y1="192" x2="696.0" y2="192" stroke="#2C2C2C" stroke-width="1"/>
<rect x="29.4" y="190.0" width="13.2" height="2.0" rx="2" fill="#D89030"/>
<rect x="53.4" y="190.0" width="13.2" height="2.0" rx="2" fill="#D89030"/>
<rect x="77.4" y="189.2" width="13.2" height="2.8" rx="2" fill="#D89030"/>
<rect x="101.4" y="189.2" width="13.2" height="2.8" rx="2" fill="#D89030"/>
<rect x="125.4" y="185.7" width="13.2" height="6.3" rx="2" fill="#D89030"/>
<rect x="149.4" y="183.6" width="13.2" height="8.4" rx="2" fill="#D89030"/>
<rect x="173.4" y="187.1" width="13.2" height="4.9" rx="2" fill="#D89030"/>
<rect x="197.4" y="190.0" width="13.2" height="2.0" rx="2" fill="#D89030"/>
<rect x="293.4" y="185.7" width="13.2" height="6.3" rx="2" fill="#D89030"/>
<rect x="317.4" y="189.2" width="13.2" height="2.8" rx="2" fill="#D89030"/>
<rect x="341.4" y="175.8" width="13.2" height="16.2" rx="2" fill="#D89030"/>
<rect x="365.4" y="170.2" width="13.2" height="21.8" rx="2" fill="#D89030"/>
<rect x="389.4" y="185.7" width="13.2" height="6.3" rx="2" fill="#D89030"/>
<rect x="413.4" y="190.0" width="13.2" height="2.0" rx="2" fill="#D89030"/>
<rect x="437.4" y="190.0" width="13.2" height="2.0" rx="2" fill="#D89030"/>
<rect x="461.4" y="182.9" width="13.2" height="9.1" rx="2" fill="#D89030"/>
<rect x="485.4" y="175.1" width="13.2" height="16.9" rx="2" fill="#D89030"/>
<rect x="509.4" y="170.2" width="13.2" height="21.8" rx="2" fill="#D89030"/>
<rect x="533.4" y="178.6" width="13.2" height="13.4" rx="2" fill="#D89030"/>
<rect x="557.4" y="183.6" width="13.2" height="8.4" rx="2" fill="#D89030"/>
<rect x="581.4" y="182.9" width="13.2" height="9.1" rx="2" fill="#D89030"/>
<rect x="605.4" y="181.5" width="13.2" height="10.5" rx="2" fill="#D89030"/>
<rect x="629.4" y="173.0" width="13.2" height="19.0" rx="2" fill="#D89030"/>
<rect x="653.4" y="166.0" width="13.2" height="26.0" rx="2" fill="#D89030"/>
<rect x="677.4" y="183.6" width="13.2" height="8.4" rx="2" fill="#D89030"/>
</svg>
